<svg width="64" height="29" viewBox="0 0 64 29" fill="none" xmlns="http://www.w3.org/2000/svg">
<path d="M38.8824 8.15625C39.1619 8.15648 39.3858 8.35881 39.3746 8.61426V19.7324C39.3746 20.0519 39.2287 20.2007 38.8483 20.2539C37.7296 20.4456 36.5772 20.5312 35.3131 20.5312C32.4717 20.5311 30.9167 19.0616 30.9166 16.3994V15.3984C30.9166 12.7148 32.4381 11.298 35.3131 11.2979C35.8276 11.2979 36.6667 11.3407 37.4049 11.4365V8.61426C37.4049 8.35885 37.6401 8.15654 37.9196 8.15625H38.8824ZM43.1959 11.5312C43.5072 11.5312 43.7494 11.7438 43.7496 11.999V20.0635C43.7494 20.3187 43.4957 20.5312 43.1959 20.5312H42.2614C41.9503 20.531 41.7078 20.3185 41.7076 20.0635V11.999C41.7078 11.744 41.9618 11.5315 42.2614 11.5312H43.1959ZM47.6168 11.5312C47.8258 11.5312 47.958 11.6166 48.1119 11.8184L50.3229 14.623L52.5778 11.8076C52.7647 11.5846 52.8646 11.5313 53.0953 11.5312H54.1735C54.4041 11.5315 54.5689 11.68 54.569 11.8711C54.569 11.9774 54.5029 12.0732 54.4479 12.1582L51.401 15.8555L54.7233 19.9258C54.8001 20.0107 54.8326 20.1067 54.8326 20.2129C54.8324 20.3615 54.7227 20.5312 54.4371 20.5312H53.1608C52.9851 20.5312 52.8859 20.4886 52.776 20.3506L50.2457 17.1943L47.7164 20.3184C47.5735 20.4882 47.4959 20.5312 47.276 20.5312H46.1656C45.9129 20.5311 45.7916 20.3714 45.7916 20.2227C45.7917 20.1693 45.803 20.0421 45.9235 19.915L49.1793 15.9512L46.0992 12.1689C46.0333 12.0734 45.9781 11.9773 45.9781 11.8711C45.9783 11.6695 46.1543 11.5315 46.4069 11.5312H47.6168ZM60.0817 11.25C62.5451 11.25 63.8263 12.2545 63.8737 14.2441V19.7285C63.8736 20.0494 63.7291 20.1994 63.3502 20.2529C62.235 20.4456 61.0965 20.5312 59.8698 20.5312H59.4576C57.1603 20.5312 55.9997 19.5999 55.9996 17.7588V17.6406C55.9998 15.7033 57.4055 14.8682 60.6842 14.8682H61.9225V14.4512C61.9225 13.1988 61.4537 12.7706 60.0709 12.7705C58.8777 12.7705 57.9961 12.8342 57.2155 12.8984H57.1041C56.6478 12.8983 56.613 12.589 56.6129 12.4922V11.9248C56.6129 11.7429 56.7136 11.5175 57.1481 11.4639C57.8953 11.3568 58.7658 11.25 60.0817 11.25ZM35.277 12.9375C33.6507 12.9377 32.9577 13.7071 32.9576 15.5127V16.5176C32.9577 18.366 33.6287 19.1248 35.277 19.125C35.8704 19.125 36.7171 19.0818 37.3326 19.0391V13.0439C36.761 12.9692 35.9033 12.9589 35.277 12.9375ZM60.6481 16.3125C58.4265 16.3125 58.0416 16.7762 58.0416 17.7568V17.7891C58.0417 18.7587 58.4476 19.125 59.5475 19.125H59.8785C60.4446 19.125 61.2355 19.0822 61.8336 19.0391V16.3125H60.6481ZM43.2115 8.15625C43.503 8.15644 43.7384 8.37531 43.7496 8.6377V9.64355C43.7496 9.90594 43.503 10.1248 43.2115 10.125H42.2467C41.944 10.1248 41.7076 9.90596 41.7076 9.64355V8.6377C41.7076 8.37529 41.9552 8.15641 42.2467 8.15625H43.2115Z" fill="#171512"/>
<path fill-rule="evenodd" clip-rule="evenodd" d="M17.7456 14.8023L14.9431 16.3612C14.6983 16.4969 14.386 16.4163 14.2444 16.1811L11.0045 10.7769C10.8634 10.5413 10.9472 10.2402 11.1921 10.1044L13.9991 8.54997C15.7936 7.55137 18.0829 8.14168 19.1205 9.86832C19.4629 10.434 19.6213 11.0588 19.6213 11.6687C19.6213 12.9182 18.9518 14.1333 17.7456 14.8023ZM25.6167 6.25762C22.5091 1.0777 15.6295 -0.693217 10.2475 2.29766L1.38685 7.21687C0.897719 7.48841 0.729563 8.09052 1.01221 8.56079L8.6922 21.3611C8.85627 21.6346 8.94265 21.9445 8.94265 22.2593V27.5863C8.94265 27.7846 9.16498 27.908 9.34336 27.8087L11.7553 26.4657L13.4067 25.5507L21.4971 21.0546C25.1056 19.0476 27.125 15.4069 27.125 11.6638C27.125 9.82404 26.6389 7.96458 25.6167 6.25762Z" fill="#171512"/>
<mask id="mask0_42_1813" style="mask-type:luminance" maskUnits="userSpaceOnUse" x="0" y="0" width="28" height="28">
<path fill-rule="evenodd" clip-rule="evenodd" d="M17.7456 14.8023L14.9431 16.3612C14.6983 16.4969 14.386 16.4163 14.2444 16.1811L11.0045 10.7769C10.8634 10.5413 10.9472 10.2402 11.1921 10.1044L13.9991 8.54997C15.7936 7.55137 18.0829 8.14168 19.1205 9.86832C19.4629 10.434 19.6213 11.0588 19.6213 11.6687C19.6213 12.9182 18.9518 14.1333 17.7456 14.8023ZM25.6167 6.25762C22.5091 1.0777 15.6295 -0.693217 10.2475 2.29766L1.38685 7.21687C0.897719 7.48841 0.729563 8.09052 1.01221 8.56079L8.6922 21.3611C8.85627 21.6346 8.94265 21.9445 8.94265 22.2593V27.5863C8.94265 27.7846 9.16498 27.908 9.34336 27.8087L11.7553 26.4657L13.4067 25.5507L21.4971 21.0546C25.1056 19.0476 27.125 15.4069 27.125 11.6638C27.125 9.82404 26.6389 7.96458 25.6167 6.25762Z" fill="white"/>
</mask>
<g mask="url(#mask0_42_1813)">
</g>
</svg>
